<svg width="20" height="20" viewBox="0 0 20 20" fill="none" xmlns="http://www.w3.org/2000/svg">
<path d="M16.2473 6.6574L9.99979 12.7474L3.75229 6.6574C3.64067 6.54837 3.49082 6.48733 3.33479 6.48733C3.17876 6.48733 3.02891 6.54837 2.91729 6.6574C2.86324 6.71036 2.82031 6.77356 2.79099 6.84332C2.76168 6.91308 2.74658 6.98798 2.74658 7.06365C2.74658 7.13932 2.76168 7.21422 2.79099 7.28398C2.82031 7.35374 2.86324 7.41694 2.91729 7.4699L9.56354 13.9499C9.68026 14.0637 9.8368 14.1273 9.99979 14.1273C10.1628 14.1273 10.3193 14.0637 10.436 13.9499L17.0823 7.47115C17.1367 7.41816 17.18 7.35479 17.2095 7.2848C17.2391 7.21481 17.2543 7.13962 17.2543 7.06365C17.2543 6.98768 17.2391 6.91248 17.2095 6.8425C17.18 6.77251 17.1367 6.70914 17.0823 6.65615C16.9707 6.54712 16.8208 6.48608 16.6648 6.48608C16.5088 6.48608 16.3589 6.54712 16.2473 6.65615V6.6574Z" fill="#FDFDFD"/>
</svg>
