<svg width="50" height="50" viewBox="0 0 50 50" fill="none" xmlns="http://www.w3.org/2000/svg">
<rect width="50" height="50" rx="4" fill="#E5EEEB"/>
<g clip-path="url(#clip0_65_292)">
<path d="M19.0347 31.9279H22.6782V32.2303H19.0347V31.9279ZM35.0396 31.9279H43.0003V32.2303H35.0396V31.9279ZM34.8448 20.8788C35.1762 21.3347 35.444 21.735 35.6573 22.0916C35.7261 20.9455 35.9245 20.246 36.1208 19.8441V23.0018C36.2232 23.2608 36.2966 23.5331 36.3006 23.8197C36.3008 24.0232 36.261 24.2098 36.1816 24.3777C36.1641 24.4153 36.1428 24.4515 36.1208 24.4872V30.3889C36.1208 30.6194 36.2124 30.8406 36.3755 31.0036C36.5385 31.1666 36.7596 31.2582 36.9902 31.2582C37.2208 31.2582 37.4419 31.1666 37.605 31.0036C37.768 30.8406 37.8596 30.6194 37.8596 30.3889V24.0421H38.1854V30.3889C38.1854 30.6194 38.2769 30.8405 38.44 31.0035C38.603 31.1665 38.8241 31.2581 39.0546 31.2581C39.2852 31.2581 39.5063 31.1665 39.6693 31.0035C39.8323 30.8405 39.9239 30.6194 39.9239 30.3889V23.2886C37.9406 21.1588 36.585 18.8083 36.2573 18.2168C36.1949 18.2376 36.1293 18.264 36.0611 18.2984C35.6829 18.4858 35.2753 18.8959 34.9899 19.6229C34.8699 19.926 34.7666 20.2865 34.6865 20.7175C34.7466 20.7635 34.7999 20.8178 34.8448 20.8788ZM34.5092 23.3368L34.5107 23.3969L34.5427 23.4037C34.5317 23.3813 34.5206 23.359 34.5092 23.3368Z" fill="#45766A"/>
<path d="M37.4386 19.6936C38.0461 20.62 38.8963 21.8001 39.9237 22.9313V19.8459C39.9654 19.9313 40.0074 20.0294 40.0489 20.1439C40.2471 20.6932 40.4137 21.5945 40.4131 23.001C40.4131 23.3887 40.4007 23.8146 40.3733 24.2822C40.3688 24.3588 40.38 24.4355 40.4063 24.5075C40.4325 24.5796 40.4732 24.6456 40.5258 24.7013C40.5785 24.7571 40.642 24.8015 40.7124 24.8318C40.7829 24.8621 40.8588 24.8777 40.9355 24.8776C41.0789 24.8774 41.2168 24.8225 41.321 24.7241C41.4253 24.6256 41.488 24.4911 41.4964 24.3479C41.5232 23.8994 41.5371 23.4503 41.538 23.001C41.5352 20.8791 41.1964 19.7047 40.7341 18.9985C40.5033 18.6481 40.2329 18.4231 39.9833 18.2984C39.734 18.173 39.515 18.1477 39.3904 18.1482L39.3881 18.1483C39.3854 18.1482 39.3831 18.1475 39.3803 18.1475H36.6642C36.6609 18.1475 36.6578 18.1484 36.6546 18.1484H36.654C36.6031 18.1486 36.5523 18.1523 36.502 18.1594C36.658 18.4379 36.9782 18.9919 37.4386 19.6936Z" fill="#45766A"/>
<path d="M38.0218 17.7463C38.8955 17.7463 39.6037 17.038 39.6037 16.1644C39.6037 15.2907 38.8955 14.5825 38.0218 14.5825C37.1482 14.5825 36.4399 15.2907 36.4399 16.1644C36.4399 17.038 37.1482 17.7463 38.0218 17.7463Z" fill="#45766A"/>
<path d="M11.7654 25.8767V40.0223C11.7654 40.8485 12.4352 41.5178 13.2609 41.5178C14.0869 41.5178 14.7567 40.8485 14.7567 40.0223V29.1025H15.3174V40.0223C15.3174 40.8485 15.9871 41.5178 16.8129 41.5178C17.6388 41.5178 18.3086 40.8485 18.3086 40.0223V21.8823C18.3893 22.0493 18.4612 22.2204 18.5239 22.3949C18.8648 23.34 19.1516 24.8906 19.1506 27.3109C19.1506 27.9779 19.1291 28.7107 19.0824 29.5155C19.0512 30.0489 19.4585 30.5065 19.9922 30.538C20.2484 30.5529 20.5001 30.4654 20.6918 30.2948C20.8835 30.1242 20.9996 29.8844 21.0146 29.6282C21.0635 28.7894 21.0862 28.0195 21.0862 27.311C21.0813 23.6597 20.4982 21.6393 19.7031 20.4242C19.3056 19.821 18.8407 19.4342 18.4113 19.2199C17.9951 19.0102 17.6293 18.9639 17.4116 18.9617C17.3992 18.9612 17.3866 18.9597 17.3738 18.9597H16.806L16.5086 21.2846L15.3292 19.8632L16.1445 18.9597H13.9293L14.7446 19.8632L13.5652 21.2846L13.2678 18.9597H12.7003C12.6641 18.9597 12.6284 18.9623 12.5933 18.9664C12.1649 18.9722 11.7247 18.997 11.2983 19.0085C11.1776 19.0116 11.0573 19.0147 10.9397 19.0145C10.249 19.0218 9.65036 18.9238 9.37238 18.7516C9.22855 18.6662 9.15017 18.588 9.07577 18.4535C9.00392 18.318 8.93594 18.0981 8.93545 17.7247C8.93473 17.3215 9.02122 16.7487 9.24912 16.0021C9.32378 15.7566 9.29787 15.4915 9.17707 15.265C9.05628 15.0386 8.85049 14.8694 8.60497 14.7947C8.59844 14.7926 8.59203 14.7916 8.5855 14.7898V12.268C8.84981 11.8439 9.52419 11.0866 10.7023 11.7889C13.8942 13.6916 14.0893 9.24838 14.0893 9.24838C14.0893 9.24838 12.4159 10.1759 11.2062 9.08725C10.1824 8.16585 8.94235 8.68843 8.58538 8.87084V8.48242H8.1418V14.7701C7.96856 14.8031 7.80764 14.8828 7.67643 15.0006C7.54522 15.1184 7.44872 15.2699 7.39737 15.4386C7.1321 16.313 7.00097 17.0583 7 17.7244C6.99952 18.3346 7.11552 18.8886 7.36629 19.361C7.74152 20.0795 8.40792 20.51 9.0419 20.707C9.68363 20.9119 10.3297 20.9477 10.9397 20.9498C10.9731 20.9498 11.0061 20.949 11.0394 20.9488C11.2897 20.9466 11.5336 20.9387 11.7653 20.9296L11.7654 25.8767Z" fill="#45766A"/>
<path d="M15.4806 18.234C16.7728 18.0219 17.7584 16.9008 17.7584 15.5489C17.7584 14.0455 16.54 12.8271 15.0367 12.8271C13.5336 12.8271 12.3149 14.0455 12.3149 15.5489C12.3149 16.9008 13.3008 18.0219 14.5927 18.234C14.7373 18.2577 14.8855 18.2706 15.0367 18.2706C15.1879 18.2706 15.3362 18.2578 15.4806 18.234ZM29.2228 24.1176C29.1009 22.9 28.828 22.1251 28.4881 21.6054C28.2573 21.2551 27.9869 21.0301 27.7375 20.9056C27.4879 20.7799 27.269 20.7549 27.1442 20.7554H27.144C27.1407 20.7554 27.1378 20.7544 27.1346 20.7544H26.6502C26.8711 21.6867 26.9291 22.5455 26.9291 23.1879C26.9291 23.5747 26.9082 23.8828 26.8896 24.0823V25.3738H24.6632V24.084C24.6362 23.7861 24.6229 23.4871 24.6236 23.188C24.6236 22.5455 24.6815 21.6868 24.9025 20.7545H24.4183C24.415 20.7545 24.4119 20.7555 24.4087 20.7555H24.4081C24.2837 20.755 24.0643 20.7798 23.8152 20.9057C23.4369 21.0931 23.0294 21.5034 22.744 22.2302C22.4553 22.96 22.2613 24.0149 22.2604 25.608C22.2606 26.0198 22.2736 26.4675 22.3025 26.9552C22.3109 27.0983 22.3736 27.2328 22.4779 27.3312C22.5821 27.4296 22.72 27.4845 22.8634 27.4847C22.8745 27.4847 22.8857 27.4842 22.8969 27.4837C23.0458 27.475 23.1851 27.4074 23.2842 27.2959C23.3834 27.1845 23.4341 27.0382 23.4254 26.8893C23.3995 26.4627 23.3862 26.0354 23.3855 25.608C23.3829 23.9051 23.6312 22.95 23.8753 22.4511V32.9961C23.8753 33.2267 23.9669 33.4478 24.1299 33.6108C24.2929 33.7738 24.514 33.8654 24.7445 33.8654C24.9751 33.8654 25.1962 33.7738 25.3592 33.6108C25.5222 33.4478 25.6138 33.2267 25.6138 32.9961V26.6494H25.9396V32.9961C25.9396 33.2267 26.0311 33.4478 26.1942 33.6109C26.3572 33.7739 26.5784 33.8655 26.8089 33.8655C27.0395 33.8655 27.2606 33.7739 27.4237 33.6109C27.5867 33.4478 27.6783 33.2267 27.6783 32.9961V22.4535C27.7199 22.5388 27.7619 22.6367 27.8033 22.7509C28.0015 23.3005 28.1681 24.2016 28.1676 25.6083C28.1676 25.9957 28.155 26.4218 28.1279 26.8895C28.1161 27.0944 28.2165 27.2783 28.3746 27.386C28.4308 26.338 28.5877 25.4958 28.8511 24.8298C28.9628 24.5438 29.0902 24.3099 29.2228 24.1176Z" fill="#45766A"/>
<path d="M24.8345 23.1879C24.8345 23.5104 24.8494 23.7761 24.8651 23.9677H26.688C26.7035 23.7761 26.7184 23.5104 26.7184 23.1879C26.7184 22.5467 26.6583 21.6847 26.4326 20.7544H25.1203C24.8946 21.6849 24.8345 22.5469 24.8345 23.1879Z" fill="#45766A"/>
<path d="M25.7767 20.3537C26.6503 20.3537 27.3586 19.6455 27.3586 18.7718C27.3586 17.8982 26.6503 17.1899 25.7767 17.1899C24.9031 17.1899 24.1948 17.8982 24.1948 18.7718C24.1948 19.6455 24.9031 20.3537 25.7767 20.3537Z" fill="#45766A"/>
<path d="M25.7748 25.1039C25.9932 25.1039 26.1703 24.9268 26.1703 24.7084C26.1703 24.49 25.9932 24.313 25.7748 24.313C25.5564 24.313 25.3794 24.49 25.3794 24.7084C25.3794 24.9268 25.5564 25.1039 25.7748 25.1039Z" fill="#45766A"/>
<path d="M31.2881 20.6253H33.4501C33.1707 20.1774 32.6751 19.8784 32.1082 19.8784C31.2346 19.8784 30.5264 20.5866 30.5264 21.4602C30.5264 22.3339 31.2346 23.0422 32.1082 23.0422C32.6971 23.0422 33.2099 22.7197 33.4822 22.2422H31.288V20.6253H31.2881Z" fill="#45766A"/>
<path d="M32.6357 21.8671C32.8751 21.8671 33.0692 21.673 33.0692 21.4335C33.0692 21.1941 32.8751 21 32.6357 21C32.3963 21 32.2021 21.1941 32.2021 21.4335C32.2021 21.673 32.3963 21.8671 32.6357 21.8671Z" fill="#45766A"/>
<path d="M36.0583 23.8226C36.0533 23.4619 35.9285 23.1174 35.7051 22.6729C35.4785 22.2309 35.1389 21.695 34.6488 21.0208C34.6054 20.961 34.5506 20.9104 34.4876 20.8718C34.4246 20.8332 34.3546 20.8074 34.2816 20.7959C34.2086 20.7844 34.1341 20.7874 34.0623 20.8047C33.9904 20.822 33.9227 20.8533 33.863 20.8968C33.8033 20.9402 33.7527 20.995 33.7142 21.058C33.6756 21.121 33.6498 21.191 33.6383 21.2639C33.6268 21.3369 33.6298 21.4114 33.6471 21.4832C33.6644 21.5549 33.6957 21.6226 33.7391 21.6823C34.2075 22.3259 34.5188 22.8228 34.7038 23.1852C34.8224 23.412 34.8847 23.588 34.9135 23.6986C34.7536 23.6944 34.4967 23.6453 34.2484 23.5863C34.1145 23.5554 33.9809 23.5228 33.8513 23.4961C33.7422 23.4743 33.6396 23.4552 33.5216 23.4482C33.5033 23.4463 33.4852 23.4425 33.4664 23.4425H30.7501C30.7469 23.4425 30.7439 23.4435 30.7406 23.4435H30.74C30.6152 23.443 30.3962 23.468 30.1469 23.5937C29.7688 23.7813 29.3611 24.1914 29.0758 24.9182C28.7872 25.648 28.5933 26.7031 28.5923 28.296C28.5923 28.708 28.6056 29.1555 28.6343 29.6432C28.643 29.7921 28.7105 29.9314 28.822 30.0305C28.9334 30.1297 29.0797 30.1804 29.2286 30.1717C29.3775 30.163 29.5168 30.0955 29.6159 29.9841C29.7151 29.8727 29.7659 29.7264 29.7572 29.5775C29.7314 29.1508 29.7181 28.7235 29.7173 28.296C29.7148 26.5933 29.9632 25.6385 30.2069 25.1393V35.6841C30.2069 36.1645 30.5962 36.5534 31.0762 36.5534C31.5562 36.5534 31.9455 36.1645 31.9455 35.6841V29.3377H32.2712V35.6841C32.2712 35.9147 32.3628 36.1358 32.5258 36.2988C32.6888 36.4618 32.9099 36.5534 33.1405 36.5534C33.2546 36.5534 33.3677 36.531 33.4732 36.4873C33.5787 36.4436 33.6745 36.3796 33.7553 36.2989C33.836 36.2181 33.9001 36.1223 33.9438 36.0168C33.9875 35.9114 34.01 35.7983 34.01 35.6841V24.6854C34.0764 24.7008 34.1445 24.7162 34.2153 24.7313C34.4438 24.7788 34.6873 24.8227 34.9446 24.8239C35.1604 24.8209 35.4058 24.7989 35.658 24.6311C35.7892 24.541 35.8943 24.4177 35.9626 24.2739C36.0318 24.1274 36.0585 23.9713 36.0583 23.8226Z" fill="#45766A"/>
</g>
<defs>
<clipPath id="clip0_65_292">
<rect width="36" height="36" fill="white" transform="translate(7 7)"/>
</clipPath>
</defs>
</svg>
