<svg width="32" height="32" viewBox="0 0 32 32" fill="none" xmlns="http://www.w3.org/2000/svg">
<path d="M12.0532 28.7203C13.3332 29.107 14.6265 29.3337 15.9998 29.3337C19.5361 29.3337 22.9274 27.9289 25.4279 25.4284C27.9284 22.9279 29.3332 19.5365 29.3332 16.0003C29.3332 14.2494 28.9883 12.5156 28.3182 10.8979C27.6482 9.28021 26.666 7.81035 25.4279 6.57224C24.1898 5.33412 22.72 4.35199 21.1023 3.68193C19.4846 3.01187 17.7508 2.66699 15.9998 2.66699C14.2489 2.66699 12.5151 3.01187 10.8974 3.68193C9.27972 4.35199 7.80986 5.33412 6.57175 6.57224C4.07126 9.07272 2.6665 12.4641 2.6665 16.0003C2.6665 21.667 6.2265 26.5337 11.2532 28.4537C11.1332 27.4137 11.0132 25.6937 11.2532 24.507L12.7865 17.9203C12.7865 17.9203 12.3998 17.147 12.3998 15.9203C12.3998 14.0803 13.5465 12.707 14.8532 12.707C15.9998 12.707 16.5332 13.547 16.5332 14.627C16.5332 15.7737 15.7732 17.4137 15.3865 18.987C15.1598 20.2937 16.0798 21.4403 17.4132 21.4403C19.7865 21.4403 21.6265 18.907 21.6265 15.3337C21.6265 12.1337 19.3332 9.94699 16.0398 9.94699C12.2798 9.94699 10.0665 12.747 10.0665 15.6937C10.0665 16.8403 10.4398 18.0003 11.0532 18.7603C11.1732 18.8403 11.1732 18.947 11.1332 19.147L10.7465 20.6003C10.7465 20.827 10.5998 20.907 10.3732 20.747C8.66651 20.0003 7.67984 17.5737 7.67984 15.6137C7.67984 11.4003 10.6665 7.57366 16.4265 7.57366C21.0132 7.57366 24.5865 10.867 24.5865 15.2403C24.5865 19.827 21.7465 23.507 17.6798 23.507C16.3865 23.507 15.1198 22.8137 14.6665 22.0003L13.7732 25.1603C13.4665 26.307 12.6265 27.8403 12.0532 28.7603V28.7203Z" fill="white"/>
</svg>
